HIERARCHY
ROOT Hips
{
	OFFSET 0.000000 97.167313 0.000000
	CHANNELS 6 Xposition Yposition Zposition Xrotation Yrotation Zrotation
	JOINT Spine
	{
		OFFSET 0.000000 13.784798 0.064400
		CHANNELS 3 Xrotation Yrotation Zrotation
		JOINT Spine1
		{
			OFFSET 0.000000 12.037903 0.404700
			CHANNELS 3 Xrotation Yrotation Zrotation
			JOINT Spine2
			{
				OFFSET 0.000000 17.795601 0.420200
				CHANNELS 3 Xrotation Yrotation Zrotation
				JOINT Neck
				{
					OFFSET 0.000000 39.131302 11.954600
					CHANNELS 3 Xrotation Yrotation Zrotation
					JOINT Head
					{
						OFFSET 0.000000 14.456192 15.627699
						CHANNELS 3 Xrotation Yrotation Zrotation
						JOINT HeadTop_End
						{
							OFFSET 0.000000 15.703506 7.603401
							CHANNELS 3 Xrotation Yrotation Zrotation
							End Site
							{
								OFFSET 0.000000 17.447403 0.000000
							}
						}
					}
				}
				JOINT LeftShoulder
				{
					OFFSET 17.399500 24.608795 1.168800
					CHANNELS 3 Xrotation Yrotation Zrotation
					JOINT LeftArm
					{
						OFFSET 18.980635 5.765305 1.818600
						CHANNELS 3 Xrotation Yrotation Zrotation
						JOINT LeftForeArm
						{
							OFFSET 49.290169 0.000000 0.000000
							CHANNELS 3 Xrotation Yrotation Zrotation
							JOINT LeftHand
							{
								OFFSET 31.562012 0.000000 0.000000
								CHANNELS 3 Xrotation Yrotation Zrotation
								JOINT LeftHandThumb1
								{
									OFFSET 6.133995 -4.388519 7.076070
									CHANNELS 3 Xrotation Yrotation Zrotation
									JOINT LeftHandThumb2
									{
										OFFSET 6.037666 -3.485840 3.485847
										CHANNELS 3 Xrotation Yrotation Zrotation
										JOINT LeftHandThumb3
										{
											OFFSET 6.496506 -3.750763 3.750761
											CHANNELS 3 Xrotation Yrotation Zrotation
											JOINT LeftHandThumb4
											{
												OFFSET 5.616882 -3.242905 3.242910
												CHANNELS 3 Xrotation Yrotation Zrotation
												End Site
												{
													OFFSET -1.254608 7.132141 0.375429
												}
											}
										}
									}
								}
								JOINT LeftHandPinky1
								{
									OFFSET 18.920792 -0.453171 -11.426712
									CHANNELS 3 Xrotation Yrotation Zrotation
									JOINT LeftHandPinky2
									{
										OFFSET 4.919586 0.000000 0.000000
										CHANNELS 3 Xrotation Yrotation Zrotation
										JOINT LeftHandPinky3
										{
											OFFSET 5.233047 0.000000 0.000000
											CHANNELS 3 Xrotation Yrotation Zrotation
											JOINT LeftHandPinky4
											{
												OFFSET 5.571716 0.000000 0.000000
												CHANNELS 3 Xrotation Yrotation Zrotation
												End Site
												{
													OFFSET -3.459808 4.342407 -0.466164
												}
											}
										}
									}
								}
								JOINT LeftHandRing1
								{
									OFFSET 22.726120 -0.094986 -6.500475
									CHANNELS 3 Xrotation Yrotation Zrotation
									JOINT LeftHandRing2
									{
										OFFSET 6.408615 0.000000 0.000000
										CHANNELS 3 Xrotation Yrotation Zrotation
										JOINT LeftHandRing3
										{
											OFFSET 6.150223 0.000000 0.000000
											CHANNELS 3 Xrotation Yrotation Zrotation
											JOINT LeftHandRing4
											{
												OFFSET 6.145386 0.000000 0.000000
												CHANNELS 3 Xrotation Yrotation Zrotation
												End Site
												{
													OFFSET -3.671402 4.923981 -0.202372
												}
											}
										}
									}
								}
								JOINT LeftHandMiddle1
								{
									OFFSET 23.373947 0.000000 0.000001
									CHANNELS 3 Xrotation Yrotation Zrotation
									JOINT LeftHandMiddle2
									{
										OFFSET 6.996567 0.000000 0.000000
										CHANNELS 3 Xrotation Yrotation Zrotation
										JOINT LeftHandMiddle3
										{
											OFFSET 7.015945 0.000000 0.000000
											CHANNELS 3 Xrotation Yrotation Zrotation
											JOINT LeftHandMiddle4
											{
												OFFSET 7.721573 0.000000 0.000000
												CHANNELS 3 Xrotation Yrotation Zrotation
												End Site
												{
													OFFSET -4.651108 6.158463 0.251582
												}
											}
										}
									}
								}
								JOINT LeftHandIndex1
								{
									OFFSET 21.310577 -0.490082 6.209344
									CHANNELS 3 Xrotation Yrotation Zrotation
									JOINT LeftHandIndex2
									{
										OFFSET 7.536453 0.000000 0.000000
										CHANNELS 3 Xrotation Yrotation Zrotation
										JOINT LeftHandIndex3
										{
											OFFSET 7.512344 0.000000 0.000000
											CHANNELS 3 Xrotation Yrotation Zrotation
											JOINT LeftHandIndex4
											{
												OFFSET 10.212402 0.000000 0.000001
												CHANNELS 3 Xrotation Yrotation Zrotation
												End Site
												{
													OFFSET -5.180801 8.690506 1.388433
												}
											}
										}
									}
								}
							}
						}
					}
				}
				JOINT RightShoulder
				{
					OFFSET -17.399500 24.608795 1.168800
					CHANNELS 3 Xrotation Yrotation Zrotation
					JOINT RightArm
					{
						OFFSET -18.980635 5.765305 1.818600
						CHANNELS 3 Xrotation Yrotation Zrotation
						JOINT RightForeArm
						{
							OFFSET -49.290169 0.000000 0.000000
							CHANNELS 3 Xrotation Yrotation Zrotation
							JOINT RightHand
							{
								OFFSET -31.562012 0.000000 0.000000
								CHANNELS 3 Xrotation Yrotation Zrotation
								JOINT RightHandThumb1
								{
									OFFSET -6.133995 -4.388519 7.076070
									CHANNELS 3 Xrotation Yrotation Zrotation
									JOINT RightHandThumb2
									{
										OFFSET -6.037666 -3.485840 3.485847
										CHANNELS 3 Xrotation Yrotation Zrotation
										JOINT RightHandThumb3
										{
											OFFSET -6.496506 -3.750763 3.750761
											CHANNELS 3 Xrotation Yrotation Zrotation
											JOINT RightHandThumb4
											{
												OFFSET -5.616882 -3.242905 3.242910
												CHANNELS 3 Xrotation Yrotation Zrotation
												End Site
												{
													OFFSET 1.254608 7.132141 0.375429
												}
											}
										}
									}
								}
								JOINT RightHandIndex1
								{
									OFFSET -21.310577 -0.490082 6.209344
									CHANNELS 3 Xrotation Yrotation Zrotation
									JOINT RightHandIndex2
									{
										OFFSET -7.536453 0.000000 0.000000
										CHANNELS 3 Xrotation Yrotation Zrotation
										JOINT RightHandIndex3
										{
											OFFSET -7.512344 0.000000 0.000000
											CHANNELS 3 Xrotation Yrotation Zrotation
											JOINT RightHandIndex4
											{
												OFFSET -10.212402 0.000000 0.000001
												CHANNELS 3 Xrotation Yrotation Zrotation
												End Site
												{
													OFFSET 5.180801 8.690506 1.388433
												}
											}
										}
									}
								}
								JOINT RightHandMiddle1
								{
									OFFSET -23.373947 0.000000 0.000001
									CHANNELS 3 Xrotation Yrotation Zrotation
									JOINT RightHandMiddle2
									{
										OFFSET -6.996567 0.000000 0.000000
										CHANNELS 3 Xrotation Yrotation Zrotation
										JOINT RightHandMiddle3
										{
											OFFSET -7.015945 0.000000 0.000000
											CHANNELS 3 Xrotation Yrotation Zrotation
											JOINT RightHandMiddle4
											{
												OFFSET -7.721573 0.000000 0.000000
												CHANNELS 3 Xrotation Yrotation Zrotation
												End Site
												{
													OFFSET 4.651108 6.158463 0.251582
												}
											}
										}
									}
								}
								JOINT RightHandRing1
								{
									OFFSET -22.726120 -0.094986 -6.500475
									CHANNELS 3 Xrotation Yrotation Zrotation
									JOINT RightHandRing2
									{
										OFFSET -6.408615 0.000000 0.000000
										CHANNELS 3 Xrotation Yrotation Zrotation
										JOINT RightHandRing3
										{
											OFFSET -6.150223 0.000000 0.000000
											CHANNELS 3 Xrotation Yrotation Zrotation
											JOINT RightHandRing4
											{
												OFFSET -6.145386 0.000000 0.000000
												CHANNELS 3 Xrotation Yrotation Zrotation
												End Site
												{
													OFFSET 3.671402 4.923981 -0.202372
												}
											}
										}
									}
								}
								JOINT RightHandPinky1
								{
									OFFSET -18.920792 -0.453171 -11.426712
									CHANNELS 3 Xrotation Yrotation Zrotation
									JOINT RightHandPinky2
									{
										OFFSET -4.919586 0.000000 0.000000
										CHANNELS 3 Xrotation Yrotation Zrotation
										JOINT RightHandPinky3
										{
											OFFSET -5.233047 0.000000 0.000000
											CHANNELS 3 Xrotation Yrotation Zrotation
											JOINT RightHandPinky4
											{
												OFFSET -5.571716 0.000000 0.000000
												CHANNELS 3 Xrotation Yrotation Zrotation
												End Site
												{
													OFFSET 3.459808 4.342407 -0.466164
												}
											}
										}
									}
								}
							}
						}
					}
				}
			}
		}
	}
	JOINT LeftUpLeg
	{
		OFFSET 19.899099 -7.885101 -3.429500
		CHANNELS 3 Xrotation Yrotation Zrotation
		JOINT LeftLeg
		{
			OFFSET 1.745560 -36.997807 10.304700
			CHANNELS 3 Xrotation Yrotation Zrotation
			JOINT LeftFoot
			{
				OFFSET -1.745558 -29.803308 -13.615400
				CHANNELS 3 Xrotation Yrotation Zrotation
				JOINT LeftToeBase
				{
					OFFSET 1.181900 -18.539904 15.226099
					CHANNELS 3 Xrotation Yrotation Zrotation
					JOINT LeftToe_End
					{
						OFFSET -0.863701 1.402801 16.534700
						CHANNELS 3 Xrotation Yrotation Zrotation
						End Site
						{
							OFFSET 0.000000 16.616566 0.000000
						}
					}
				}
			}
		}
	}
	JOINT RightUpLeg
	{
		OFFSET -19.899099 -7.885101 -3.429500
		CHANNELS 3 Xrotation Yrotation Zrotation
		JOINT RightLeg
		{
			OFFSET -1.745560 -36.997807 10.304700
			CHANNELS 3 Xrotation Yrotation Zrotation
			JOINT RightFoot
			{
				OFFSET 1.745558 -29.803308 -13.615400
				CHANNELS 3 Xrotation Yrotation Zrotation
				JOINT RightToeBase
				{
					OFFSET -1.181900 -18.539904 15.226099
					CHANNELS 3 Xrotation Yrotation Zrotation
					JOINT RightToe_End
					{
						OFFSET 0.863701 1.402801 16.534700
						CHANNELS 3 Xrotation Yrotation Zrotation
						End Site
						{
							OFFSET 0.000000 16.616566 0.000000
						}
					}
				}
			}
		}
	}
}
MOTION
Frames: 4
Frame Time: 0.033333
-1.376680 90.789017 2.295280 2.277898 -33.501535 0.870297 5.962859 -27.296515 3.186902 -0.439053 -7.562648 0.653910 -0.682787 8.829098 -0.995101 -0.682564 3.945390 1.332711 -9.018198 33.075802 -3.904155 0.000000 -0.000002 -0.000001 -1.325282 -33.192370 -16.740415 -9.011426 -54.152950 -38.567879 0.000007 -18.006201 -0.000013 6.267465 -21.030084 14.788495 34.803461 -14.953270 -21.147705 16.932620 25.127021 5.283859 2.546880 4.144112 11.506638 0.000001 0.000001 -0.000001 6.921365 18.591507 -79.496633 2.960152 5.089150 -60.347911 3.182569 5.209013 -62.825719 -0.000000 -0.000001 -0.000006 7.935887 8.590742 -80.993742 3.314213 5.274220 -64.266589 6.472978 5.818024 -96.112086 -0.000001 0.000003 0.000007 5.789695 8.409709 -73.516932 3.487040 5.353752 -66.132624 5.994269 5.849322 -91.404959 0.000000 0.000000 0.000008 5.539300 3.781071 -74.128842 2.872822 5.038643 -59.358510 6.950464 5.747183 -100.848570 -0.000001 0.000003 -0.000003 -2.100277 -20.005817 -0.883239 -11.524870 1.674965 35.473281 0.000096 76.214010 -0.000051 -122.335354 17.105229 -8.083467 33.165196 16.381254 21.951362 17.292384 -27.153648 -5.528676 4.555396 -10.040727 -12.822826 0.000001 -0.000002 0.000001 4.651276 -2.558388 73.389884 2.288892 -4.011181 59.406636 5.531157 -4.574602 100.828277 -0.000000 -0.000001 -0.000001 4.854608 -7.193589 72.800712 2.777537 -4.261773 66.173195 4.771009 -4.655776 91.402261 -0.000001 0.000001 -0.000008 6.845394 -7.366726 80.254853 2.640056 -4.198536 64.309503 5.151564 -4.630903 96.100468 -0.000002 0.000001 -0.000003 5.731570 -17.358852 78.773029 2.358368 -4.051362 60.395080 2.535311 -4.146680 62.870307 0.000000 0.000003 -0.000001 -8.474866 16.164611 20.091136 14.163764 -3.239212 -2.815586 0.922562 32.391298 -17.114168 0.032205 -0.000002 -0.000002 -0.000000 0.000000 -0.000000 -8.453741 -3.640099 -15.197873 13.310150 1.544666 -4.979584 -10.381568 9.038863 20.076713 -0.025640 0.000015 -0.000003 -0.000000 0.000000 -0.000000 
-0.703581 90.229179 2.791782 3.012285 -32.966980 0.885265 6.375560 -27.509121 3.213304 -0.428928 -7.614608 0.590152 -0.595555 6.787879 -0.861754 -1.212333 2.599168 0.715237 -8.192810 32.747895 -5.036355 -0.000000 0.000000 0.000000 -1.409678 -33.936061 -16.867917 -10.431103 -54.822257 -40.601390 -0.000005 -18.978254 -0.000007 5.820997 -19.942356 13.855382 34.803465 -14.953273 -21.147710 16.932618 25.127019 5.283862 2.546886 4.144113 11.506637 -0.000001 0.000001 -0.000001 6.921369 18.591512 -79.496633 2.960153 5.089158 -60.347911 3.182569 5.209010 -62.825719 0.000000 0.000000 -0.000006 7.935888 8.590744 -80.993742 3.314212 5.274226 -64.266595 6.472979 5.818024 -96.112093 -0.000000 -0.000001 0.000003 5.789694 8.409711 -73.516939 3.487041 5.353753 -66.132617 5.994275 5.849318 -91.404959 -0.000004 -0.000003 0.000008 5.539295 3.781066 -74.128842 2.872826 5.038642 -59.358510 6.950469 5.747181 -100.848570 0.000001 -0.000002 0.000001 -2.569642 -19.908205 -1.106260 -12.867276 -2.494170 34.447257 0.000123 78.337933 -0.000123 -120.077089 14.921197 -11.374148 33.165192 16.381252 21.951362 17.292384 -27.153648 -5.528679 4.555393 -10.040725 -12.822821 0.000000 -0.000001 -0.000001 4.651281 -2.558387 73.389877 2.288887 -4.011180 59.406636 5.531162 -4.574599 100.828270 -0.000002 0.000000 -0.000001 4.854609 -7.193594 72.800719 2.777537 -4.261771 66.173195 4.771006 -4.655782 91.402261 -0.000002 -0.000001 -0.000004 6.845400 -7.366727 80.254853 2.640054 -4.198531 64.309503 5.151565 -4.630906 96.100468 -0.000002 -0.000002 -0.000000 5.731570 -17.358849 78.773029 2.358363 -4.051360 60.395087 2.535311 -4.146683 62.870307 0.000003 -0.000002 0.000002 -10.815027 16.311095 20.710739 16.914280 -4.109827 -3.570553 -1.392950 32.026846 -15.555735 0.032208 0.000003 0.000002 -0.000000 -0.000000 -0.000000 -9.201656 -4.195534 -15.699086 13.802743 2.801198 -4.362406 -10.660597 7.959240 20.023229 -0.025641 0.000005 0.000003 -0.000000 -0.000000 -0.000000 
0.138357 89.636078 3.230161 4.018536 -31.379156 1.006460 6.757033 -27.772353 3.381205 -0.356697 -7.691168 0.571052 -0.462987 4.468319 -0.652849 -1.900831 1.134182 0.132880 -7.511778 32.292417 -5.903788 0.000000 -0.000001 -0.000000 -1.433361 -34.448254 -16.822500 -12.515650 -55.362279 -43.358498 0.000009 -19.449029 -0.000000 5.881852 -19.364853 12.497947 34.803465 -14.953270 -21.147709 16.932623 25.127021 5.283858 2.546886 4.144112 11.506635 -0.000001 0.000001 0.000000 6.921367 18.591510 -79.496633 2.960153 5.089154 -60.347911 3.182570 5.209009 -62.825726 -0.000001 -0.000000 -0.000000 7.935885 8.590744 -80.993742 3.314214 5.274222 -64.266589 6.472981 5.818021 -96.112086 -0.000001 -0.000001 0.000003 5.789695 8.409711 -73.516939 3.487042 5.353750 -66.132617 5.994275 5.849319 -91.404959 -0.000001 0.000003 -0.000001 5.539298 3.781069 -74.128842 2.872823 5.038639 -59.358517 6.950465 5.747185 -100.848570 -0.000001 0.000001 -0.000001 -2.812903 -19.102600 -1.231466 -13.911556 -7.876792 33.474918 0.000208 81.385713 -0.000197 -117.806966 12.966886 -14.947734 33.165196 16.381249 21.951359 17.292388 -27.153649 -5.528683 4.555394 -10.040728 -12.822815 0.000000 0.000000 0.000002 4.651276 -2.558388 73.389877 2.288882 -4.011174 59.406636 5.531164 -4.574598 100.828277 -0.000000 -0.000004 -0.000004 4.854611 -7.193590 72.800712 2.777540 -4.261776 66.173195 4.771008 -4.655782 91.402254 -0.000004 0.000003 -0.000004 6.845396 -7.366726 80.254846 2.640055 -4.198532 64.309510 5.151567 -4.630902 96.100475 -0.000001 0.000002 0.000000 5.731571 -17.358852 78.773029 2.358369 -4.051359 60.395087 2.535312 -4.146680 62.870300 -0.000002 -0.000000 0.000002 -14.013882 15.763093 21.312120 19.876264 -3.822151 -3.994988 -3.163427 29.908934 -14.243729 0.024308 0.000006 -0.020338 -0.000000 0.000001 -0.000000 -9.630888 -4.731730 -16.082056 14.235732 4.148551 -3.915502 -11.087976 5.557923 19.915452 -0.025642 -0.000008 0.000006 -0.000000 -0.000001 -0.000000 
1.024084 88.925377 3.647792 5.334619 -28.986029 1.374575 7.014324 -27.910209 3.515653 -0.244589 -7.736629 0.572895 -0.302044 2.032588 -0.404671 -2.726409 -0.405171 -0.433588 -6.740790 31.963701 -6.533477 0.000000 -0.000001 0.000000 -1.382741 -34.720102 -16.583382 -14.943667 -55.694869 -46.692358 0.000018 -19.433502 0.000010 6.668796 -19.321717 10.712025 34.803468 -14.953272 -21.147709 16.932620 25.127018 5.283860 2.546887 4.144111 11.506635 -0.000001 0.000001 0.000000 6.921373 18.591510 -79.496633 2.960150 5.089154 -60.347911 3.182571 5.209006 -62.825726 0.000001 -0.000002 -0.000004 7.935889 8.590741 -80.993742 3.314214 5.274224 -64.266595 6.472973 5.818022 -96.112086 0.000001 -0.000001 0.000005 5.789694 8.409710 -73.516939 3.487039 5.353749 -66.132617 5.994273 5.849315 -91.404959 -0.000005 -0.000005 0.000004 5.539296 3.781066 -74.128842 2.872824 5.038647 -59.358510 6.950468 5.747180 -100.848570 -0.000001 0.000003 -0.000003 -2.890583 -17.293288 -1.232886 -13.874081 -15.095150 32.576539 0.000140 85.401550 -0.000138 -115.989111 11.453095 -18.279005 33.165196 16.381254 21.951362 17.292384 -27.153649 -5.528682 4.555394 -10.040723 -12.822821 -0.000000 -0.000001 -0.000003 4.651282 -2.558390 73.389884 2.288886 -4.011179 59.406629 5.531167 -4.574593 100.828277 -0.000003 0.000002 0.000001 4.854606 -7.193589 72.800712 2.777540 -4.261774 66.173202 4.771006 -4.655779 91.402261 0.000001 0.000002 -0.000001 6.845392 -7.366725 80.254846 2.640054 -4.198532 64.309516 5.151569 -4.630899 96.100475 0.000002 0.000001 -0.000003 5.731567 -17.358847 78.773029 2.358367 -4.051360 60.395087 2.535314 -4.146680 62.870300 -0.000001 -0.000000 0.000006 -17.729484 14.664869 21.758058 22.866102 -2.434936 -4.368147 -4.414213 26.411933 -13.329420 0.020176 0.000001 -0.030953 0.000000 0.000001 0.000000 -10.104666 -5.320220 -16.579280 15.085630 5.614139 -3.552383 -11.972633 2.240294 19.705967 -0.025643 -0.000018 -0.000001 0.000000 -0.000001 -0.000000 
